<svg xmlns="http://www.w3.org/2000/svg" viewBox="0 0 436.61 57.78" preserveAspectRatio="none"><title>access</title><g id="Layer_2" data-name="Layer 2"><g id="Layer_1-2" data-name="Layer 1"><path d="M0,56.82,17.66,1h6.48L42.88,56.82H36L30.63,39.91H11.37l-5,16.91ZM13.14,33.9h15.6L24,18.43q-2.21-7.12-3.24-11.58a82.09,82.09,0,0,1-2.51,10.66Z"/><path d="M78.22,37.25l6.09,1.87q-2,9.41-7.06,14A17.51,17.51,0,0,1,65,57.78a18.71,18.71,0,0,1-10.87-3.11q-4.51-3.11-7.39-10a41.71,41.71,0,0,1-2.88-16.2A37.88,37.88,0,0,1,46.71,12.9a22,22,0,0,1,7.8-9.64A19.45,19.45,0,0,1,65.48,0a16.84,16.84,0,0,1,11.4,4.12q4.76,4.12,6.67,12.1l-5.94,1.71Q74.56,6.32,65.37,6.32a13.5,13.5,0,0,0-7.93,2.35A15.8,15.8,0,0,0,52.08,16a33.75,33.75,0,0,0-2,12.54q0,11.47,4,17.21a12.52,12.52,0,0,0,10.74,5.74,11.8,11.8,0,0,0,8.55-3.52Q77,44.41,78.22,37.25Z"/><path d="M122.43,37.25l6.09,1.87q-2,9.41-7.06,14a17.51,17.51,0,0,1-12.28,4.63A18.71,18.71,0,0,1,98.3,54.67q-4.51-3.11-7.39-10A41.71,41.71,0,0,1,88,28.51,37.88,37.88,0,0,1,90.92,12.9a22,22,0,0,1,7.8-9.64,19.45,19.45,0,0,1,11-3.26,16.84,16.84,0,0,1,11.4,4.12q4.76,4.12,6.67,12.1l-5.94,1.71Q118.77,6.32,109.58,6.32a13.5,13.5,0,0,0-7.93,2.35A15.8,15.8,0,0,0,96.29,16a33.75,33.75,0,0,0-2,12.54q0,11.47,4,17.21a12.52,12.52,0,0,0,10.74,5.74,11.8,11.8,0,0,0,8.55-3.52Q121.21,44.41,122.43,37.25Z"/><path d="M134.27,56.82V1h33.1V7.58h-27V24.64h25.33v6.59H140.32v19h28.11v6.59Z"/><path d="M172.8,38.85l5.71-.61a16.62,16.62,0,0,0,2.08,7.18,11.67,11.67,0,0,0,4.63,4.13A14.49,14.49,0,0,0,192,51.11q5.41,0,8.4-2.64a8.73,8.73,0,0,0,3-6.86,8.35,8.35,0,0,0-1.09-4.31,8.16,8.16,0,0,0-3.28-3,61.39,61.39,0,0,0-9.46-3.33q-6.48-1.92-9.22-3.86a13.42,13.42,0,0,1-4.27-4.93,14.67,14.67,0,0,1-1.52-6.76A14.86,14.86,0,0,1,178.94,4.3Q183.31,0,190.74,0a18.88,18.88,0,0,1,8.93,2,14.35,14.35,0,0,1,5.94,5.79,19,19,0,0,1,2.27,8.87l-5.83.53q-.46-5.45-3.26-8.07t-7.86-2.63q-5.14,0-7.85,2.3a7.47,7.47,0,0,0-2.7,6,6.86,6.86,0,0,0,2,5.25q2,1.87,8.91,3.78a58.43,58.43,0,0,1,9.52,3.25,15.41,15.41,0,0,1,6.32,5.63A15.57,15.57,0,0,1,209.25,41,17.3,17.3,0,0,1,207,49.73a15.1,15.1,0,0,1-6.11,6,19.61,19.61,0,0,1-9.31,2.05q-8.49,0-13.54-5.1T172.8,38.85Z"/><path d="M213.51,38.85l5.71-.61a16.62,16.62,0,0,0,2.08,7.18,11.67,11.67,0,0,0,4.63,4.13,14.49,14.49,0,0,0,6.78,1.56q5.41,0,8.4-2.64a8.73,8.73,0,0,0,3-6.86A8.35,8.35,0,0,0,243,37.3a8.16,8.16,0,0,0-3.28-3,61.39,61.39,0,0,0-9.46-3.33q-6.48-1.92-9.22-3.86a13.42,13.42,0,0,1-4.27-4.93,14.67,14.67,0,0,1-1.52-6.76A14.86,14.86,0,0,1,219.64,4.3Q224,0,231.45,0a18.88,18.88,0,0,1,8.93,2,14.35,14.35,0,0,1,5.94,5.79,19,19,0,0,1,2.27,8.87l-5.83.53q-.46-5.45-3.26-8.07t-7.86-2.63q-5.14,0-7.85,2.3a7.47,7.47,0,0,0-2.7,6,6.86,6.86,0,0,0,2,5.25q2,1.87,8.91,3.78a58.43,58.43,0,0,1,9.52,3.25,15.41,15.41,0,0,1,6.32,5.63A15.57,15.57,0,0,1,250,41a17.3,17.3,0,0,1-2.25,8.73,15.1,15.1,0,0,1-6.11,6,19.61,19.61,0,0,1-9.31,2.05q-8.49,0-13.54-5.1T213.51,38.85Z"/><path d="M256,56.82V1h17.2a17.78,17.78,0,0,1,8.27,1.62,12.49,12.49,0,0,1,5,5,15.08,15.08,0,0,1,1.94,7.57,14.26,14.26,0,0,1-1.68,6.93,13,13,0,0,1-4.72,4.95A12.38,12.38,0,0,1,288.33,32a15.3,15.3,0,0,1,2.29,8.59,18.39,18.39,0,0,1-2.08,8.9A12.8,12.8,0,0,1,283,55.09q-3.47,1.73-9.52,1.73Zm6.06-32.37H272a20,20,0,0,0,5.53-.53,6.93,6.93,0,0,0,3.64-2.69,9,9,0,0,0,1.28-5.12,9.84,9.84,0,0,0-1.16-5,6.18,6.18,0,0,0-3.09-2.76,21.35,21.35,0,0,0-6.93-.76h-9.2Zm0,25.79h11.41a16.71,16.71,0,0,0,5.57-.69A7.61,7.61,0,0,0,283,46.29a10.94,10.94,0,0,0,1.35-5.69,10.33,10.33,0,0,0-1.3-5.35,7.79,7.79,0,0,0-3.49-3.2,17.5,17.5,0,0,0-6.89-1H262.1Z"/><path d="M298.12,56.82V1h6.06V56.82Z"/><path d="M312.43,56.82V1h6.06V50.24H341v6.59Z"/><path d="M347.58,56.82V1h6.06V56.82Z"/><path d="M374,56.82V7.58H358.92V1h36.3V7.58H380.06V56.82Z"/><path d="M412.27,56.82V33.17L394.64,1H402l9,16.85q2.67,5,4.69,9.46,2-4.39,5-9.87L429.61,1h7L418.33,33.17V56.82Z"/></g></g></svg>