<svg xmlns="http://www.w3.org/2000/svg" viewBox="0 0 308.18 57.78" preserveAspectRatio="none"><title>full</title><g id="Layer_2" data-name="Layer 2"><g id="Layer_1-2" data-name="Layer 1"><path d="M0,56.82V1H30.89V7.58H6.06V24.87H27.54v6.59H6.06V56.82Z"/><path d="M66.6,1h6.06V33.25a46.81,46.81,0,0,1-1.58,13.31,15.29,15.29,0,0,1-5.75,8.21,17.65,17.65,0,0,1-10.6,3q-9.05,0-13.56-5.41T36.67,33.25V1h6.06V33.21q0,7.58,1.18,11a9.82,9.82,0,0,0,3.87,5.16,11.59,11.59,0,0,0,6.53,1.77q6.47,0,9.39-3.66T66.6,33.21Z"/><path d="M80.54,56.82V1h6.06V50.24h22.55v6.59Z"/><path d="M114.16,56.82V1h6.06V50.24h22.55v6.59Z"/><path d="M148,56.82V1h6.21l24.07,43.92V1H184V56.82h-6.21l-24-43.93V56.82Z"/><path d="M192.49,56.82V1h33.1V7.58h-27V24.64h25.33v6.59H198.54v19h28.11v6.59Z"/><path d="M231,38.85l5.71-.61a16.62,16.62,0,0,0,2.08,7.18,11.67,11.67,0,0,0,4.63,4.13,14.5,14.5,0,0,0,6.78,1.56q5.41,0,8.4-2.64a8.73,8.73,0,0,0,3-6.86,8.34,8.34,0,0,0-1.09-4.31,8.16,8.16,0,0,0-3.28-3,61.28,61.28,0,0,0-9.46-3.33q-6.48-1.92-9.22-3.86a13.42,13.42,0,0,1-4.27-4.93,14.67,14.67,0,0,1-1.52-6.76A14.86,14.86,0,0,1,237.15,4.3Q241.53,0,249,0a18.88,18.88,0,0,1,8.93,2,14.35,14.35,0,0,1,5.94,5.79,19,19,0,0,1,2.27,8.87l-5.83.53q-.46-5.45-3.26-8.07t-7.86-2.63q-5.14,0-7.85,2.3a7.46,7.46,0,0,0-2.7,6,6.87,6.87,0,0,0,2,5.25q2,1.87,8.91,3.78A58.43,58.43,0,0,1,259,27.06a15.42,15.42,0,0,1,6.32,5.62A15.58,15.58,0,0,1,267.47,41a17.31,17.31,0,0,1-2.25,8.73,15.09,15.09,0,0,1-6.11,6,19.6,19.6,0,0,1-9.31,2.05q-8.49,0-13.54-5.1T231,38.85Z"/><path d="M271.73,38.85l5.71-.61a16.62,16.62,0,0,0,2.08,7.18,11.67,11.67,0,0,0,4.63,4.13,14.5,14.5,0,0,0,6.78,1.56q5.41,0,8.4-2.64a8.73,8.73,0,0,0,3-6.86,8.34,8.34,0,0,0-1.09-4.31,8.16,8.16,0,0,0-3.28-3,61.28,61.28,0,0,0-9.46-3.33Q282,29,279.27,27.08A13.42,13.42,0,0,1,275,22.15a14.67,14.67,0,0,1-1.52-6.76A14.86,14.86,0,0,1,277.86,4.3Q282.24,0,289.67,0a18.88,18.88,0,0,1,8.93,2,14.35,14.35,0,0,1,5.94,5.79,19,19,0,0,1,2.27,8.87l-5.83.53q-.46-5.45-3.26-8.07t-7.86-2.63q-5.14,0-7.85,2.3a7.46,7.46,0,0,0-2.7,6,6.87,6.87,0,0,0,2,5.25q2,1.87,8.91,3.78a58.43,58.43,0,0,1,9.52,3.25A15.42,15.42,0,0,1,306,32.69,15.58,15.58,0,0,1,308.18,41a17.31,17.31,0,0,1-2.25,8.73,15.09,15.09,0,0,1-6.11,6,19.6,19.6,0,0,1-9.31,2.05q-8.49,0-13.54-5.1T271.73,38.85Z"/></g></g></svg>