<svg xmlns="http://www.w3.org/2000/svg" viewBox="0 0 445.83 57.78" preserveAspectRatio="none"><title>respo</title><g id="Layer_2" data-name="Layer 2"><g id="Layer_1-2" data-name="Layer 1"><path d="M0,56.82V1H20.3q6.36,0,9.39,1.56a11.9,11.9,0,0,1,5,5.2,17.63,17.63,0,0,1,1.94,8.43q0,6.32-3.29,10.24t-9.58,5a15.62,15.62,0,0,1,3.88,3.1,39.13,39.13,0,0,1,4.76,7.12l8,15.2H32.75L26.65,45.21A73,73,0,0,0,21.29,36a10.49,10.49,0,0,0-3.5-3.19A11.09,11.09,0,0,0,13.06,32h-7V56.82ZM6.06,25.63h13a15.91,15.91,0,0,0,6.47-1,7.84,7.84,0,0,0,3.5-3.24,10,10,0,0,0,1.29-5.14,8.87,8.87,0,0,0-2.48-6.65Q25.4,7.16,20.53,7.16H6.06Z"/><path d="M44.36,56.82V1h33.1V7.58h-27V24.64H75.75v6.59H50.42v19H78.53v6.59Z"/><path d="M82.9,38.85l5.71-.61a16.62,16.62,0,0,0,2.08,7.18,11.67,11.67,0,0,0,4.63,4.13,14.5,14.5,0,0,0,6.78,1.56q5.41,0,8.4-2.64a8.73,8.73,0,0,0,3-6.86,8.34,8.34,0,0,0-1.09-4.31,8.16,8.16,0,0,0-3.28-3,61.28,61.28,0,0,0-9.46-3.33Q93.18,29,90.44,27.08a13.42,13.42,0,0,1-4.27-4.93,14.67,14.67,0,0,1-1.52-6.76A14.86,14.86,0,0,1,89,4.3Q93.41,0,100.84,0a18.88,18.88,0,0,1,8.93,2,14.35,14.35,0,0,1,5.94,5.79A19,19,0,0,1,118,16.68l-5.83.53q-.46-5.45-3.26-8.07T101,6.51q-5.14,0-7.85,2.3a7.46,7.46,0,0,0-2.7,6,6.87,6.87,0,0,0,2,5.25q2,1.87,8.91,3.78a58.43,58.43,0,0,1,9.52,3.25,15.42,15.42,0,0,1,6.32,5.62A15.58,15.58,0,0,1,119.35,41a17.31,17.31,0,0,1-2.25,8.73,15.09,15.09,0,0,1-6.11,6,19.6,19.6,0,0,1-9.31,2.05q-8.49,0-13.54-5.1T82.9,38.85Z"/><path d="M125.62,56.82V1h17.25q6.09,0,9,1.07a12.13,12.13,0,0,1,6.32,5.37,18.37,18.37,0,0,1,2.36,9.64q0,7.54-3.85,12.3t-13.29,4.76H131.68v22.7Zm6.06-29.29h11.84q5.6,0,8.19-2.53t2.59-7.64A11.78,11.78,0,0,0,153,11.69a7.23,7.23,0,0,0-3.08-3.24q-1.81-.88-6.53-.88H131.68Z"/><path d="M164.65,29.63q0-14.28,6.28-22T186.59,0a19.08,19.08,0,0,1,11,3.43,23.14,23.14,0,0,1,7.9,10,38,38,0,0,1,2.91,15.56q0,12.42-5.64,20.22-6.21,8.61-16.26,8.61t-16.3-8.84Q164.65,40.94,164.65,29.63Zm6.25.1q0,10.33,4.55,16t11.06,5.7q6.66,0,11.18-5.76t4.51-16.92a33.78,33.78,0,0,0-2.32-12.88,15.84,15.84,0,0,0-5.39-7,13.11,13.11,0,0,0-7.86-2.61A13.7,13.7,0,0,0,175.34,12Q170.9,17.76,170.9,29.73Z"/><path d="M214,56.82V1h6.21l24.07,43.92V1h5.79V56.82h-6.21l-24-43.93V56.82Z"/><path d="M256.35,38.85l5.71-.61a16.62,16.62,0,0,0,2.08,7.18,11.67,11.67,0,0,0,4.63,4.13,14.5,14.5,0,0,0,6.78,1.56q5.41,0,8.4-2.64a8.73,8.73,0,0,0,3-6.86,8.34,8.34,0,0,0-1.09-4.31,8.16,8.16,0,0,0-3.28-3,61.28,61.28,0,0,0-9.46-3.33q-6.48-1.92-9.22-3.86a13.42,13.42,0,0,1-4.27-4.93,14.67,14.67,0,0,1-1.52-6.76A14.86,14.86,0,0,1,262.48,4.3Q266.86,0,274.29,0a18.88,18.88,0,0,1,8.93,2,14.35,14.35,0,0,1,5.94,5.79,19,19,0,0,1,2.27,8.87l-5.83.53q-.46-5.45-3.26-8.07t-7.86-2.63q-5.14,0-7.85,2.3a7.46,7.46,0,0,0-2.7,6,6.87,6.87,0,0,0,2,5.25q2,1.87,8.91,3.78a58.43,58.43,0,0,1,9.52,3.25,15.42,15.42,0,0,1,6.32,5.62A15.58,15.58,0,0,1,292.8,41a17.31,17.31,0,0,1-2.25,8.73,15.09,15.09,0,0,1-6.11,6,19.6,19.6,0,0,1-9.31,2.05q-8.49,0-13.54-5.1T256.35,38.85Z"/><path d="M300.25,56.82V1h6.06V56.82Z"/><path d="M328.08,56.82,310.3,1h6.55l11.94,40.56q1.37,4.72,2.4,9.14,1.07-4.61,2.44-9.14L346,1h6.17L334.3,56.82Z"/><path d="M356.8,56.82V1h6.06V56.82Z"/><path d="M383.22,56.82V7.58H368.14V1h36.3V7.58H389.28V56.82Z"/><path d="M421.49,56.82V33.17L403.86,1h7.4l9,16.85q2.67,5,4.69,9.46,2-4.39,5-9.87L438.82,1h7L427.54,33.17V56.82Z"/></g></g></svg>