<svg xmlns="http://www.w3.org/2000/svg" viewBox="0 0 552.23 55.54" preserveAspectRatio="none"><title>comfort</title><g id="Layer_2" data-name="Layer 2"><g id="Layer_1-2" data-name="Layer 1"><path d="M37.83,17.55h-1.4c-.7-9.12-5.93-15-13.34-15-9.67,0-14.35,9.28-14.35,26.83,0,16.46,5.93,23.4,15.29,23.4,6.16,0,10.22-3.2,13.81-10.37l1.25.63c-3.67,8.27-9.44,12.48-17.24,12.48C10.92,55.54,0,46.57,0,29.25,0,12.4,9.52,0,22.39,0c6.32,0,9.44,3.28,11.39,3.28,1,0,1.48-.86,1.79-3.28H36.9Z"/><path d="M61.62,0C75.89,0,82.68,14.12,82.68,27.77c0,13.88-6.86,27.77-21.06,27.77C48,55.54,40.56,42.43,40.56,27.77,40.56,14.12,47.35,0,61.62,0Zm0,52.81c9.75,0,12.32-9.75,12.32-25,0-17.55-3.67-25-12.32-25-9.13,0-12.32,8.66-12.32,25C49.3,45.32,53,52.81,61.62,52.81Z"/><path d="M98,1.17l14.2,39.24h.16l14.2-39.24h12.95V2.5c-4.52,0-5.62,1.33-5.62,7V45.95c0,5.85,1.25,7.1,5.62,7.1v1.33H119.89V53c5.23.08,6.63-.94,6.63-7.1V10.14h-.16L110.45,54.37h-.94L93.76,11.08H93.6V45.95c0,6.24,1.33,7.1,6.47,7.1v1.33H84.4V53c5,0,6.24-1.09,6.24-7.1V9.52c0-5.7-1.09-7-6.24-7V1.17Z"/><path d="M179.17,12.56h-1.4c-.23-4.52-2.11-8.42-8.27-8.42H154.36V25h8.74c5.07,0,7.72-1.64,7.41-7.57h1.33V35.57h-1.33c.16-5.3-1.17-7.64-6.24-7.64h-9.91v18c0,6,1.09,7.18,7.18,7.1v1.33H140.32V53c5.77.08,6.71-1.33,6.71-7.1V9.52c0-6.08-.86-7-6.71-7V1.17h38.46Z"/><path d="M202.1,0c14.27,0,21.06,14.12,21.06,27.77,0,13.88-6.86,27.77-21.06,27.77C188.52,55.54,181,42.43,181,27.77,181,14.12,187.82,0,202.1,0Zm0,52.81c9.75,0,12.32-9.75,12.32-25,0-17.55-3.67-25-12.32-25-9.13,0-12.32,8.66-12.32,25C189.77,45.32,193.44,52.81,202.1,52.81Z"/><path d="M238.91,45.95c0,6.08,1.09,7.18,6.86,7.1v1.33H224.64V53c5.93.08,6.94-1.09,6.94-7.1V9.6c0-6.16-1.33-7.18-6.94-7.1V1.17h21.84c10.14,0,15.91,6.24,15.91,13.34,0,6.63-4.76,12.09-12.87,13.65l12.64,20.59c2.11,3.43,3.35,4.45,6,4.29v1.33H257.94L242.5,29.1h-3.59ZM241.8,26.6c7.33,0,11.86-4.68,11.86-11.31,0-6.79-4-11.39-9.75-11.39a11.72,11.72,0,0,0-5,1.09V26.6Z"/><path d="M289.69,45.95c0,6.24,1.33,7.1,6.94,7.1v1.33H275.42V53c5.62.08,6.94-.78,6.94-7.1V4.13h-5.54c-6.4,0-8.81,2.34-9,9.13H266.6V1.17h38.85V13.26H304.2c-.16-6.71-2.5-9.13-8.89-9.13h-5.62Z"/><path d="M311.29,47.66a11.93,11.93,0,0,0-.39,2.34c0,2,1.25,3.12,5.15,3v1.33H301.62V53c3.82,0,5.23-1.48,6.94-7.33L322.22,0h1.25l14.66,45.71c2.26,7.1,3.28,7.33,7,7.33v1.33H327V53c3.28,0,4.52-.86,4.52-3a11.34,11.34,0,0,0-.78-3.51l-3-9.13H314.34Zm9.52-32.21h-.16l-5.46,19h11.62Z"/><path d="M364.72,1.17c10.84,0,18,6.09,18,14.12,0,5.23-3.35,11-12.48,11.78v.16c9.83.47,14.59,5.3,14.59,12.87,0,8.89-6.79,14.28-17.55,14.28H345.93V53c5.69,0,6.79-1,6.79-7.1V9.52c0-6-1.17-7.1-6.79-7V1.17ZM360,25.2a20.31,20.31,0,0,0,4.13.47C371,25.66,375,21.76,375,15S370.81,3.9,364.1,3.9a17.45,17.45,0,0,0-4.06.47Zm0,25.43a13.32,13.32,0,0,0,5.3,1c6.63,0,10.76-4.13,10.76-11.23s-5.07-12-12.32-12a16.6,16.6,0,0,0-3.74.39Z"/><path d="M406.53,1.17V2.5c-5.23-.08-6.55,1-6.55,7V45.95c0,6.47,1.64,7.1,6.55,7.1v1.33H386.1V53c5.38.08,6.55-1.33,6.55-7.1V9.52c0-6-1.33-7-6.55-7V1.17Z"/><path d="M428.68,1.17V2.5c-5.62-.08-6.94.86-6.94,7.1v37.6c0,3.51.62,4.21,3.9,4.21h5.54c8.42,0,10.69-1.87,13.73-11.47l1.25.39-3.82,14H407.47V53c6.08.08,6.94-1.33,6.94-7V9.6c0-6.16-1.4-7.18-6.94-7.1V1.17Z"/><path d="M467.68,1.17V2.5c-5.23-.08-6.55,1-6.55,7V45.95c0,6.47,1.64,7.1,6.55,7.1v1.33H447.25V53c5.38.08,6.55-1.33,6.55-7.1V9.52c0-6-1.33-7-6.55-7V1.17Z"/><path d="M491.71,45.95c0,6.24,1.33,7.1,6.94,7.1v1.33H477.43V53c5.62.08,6.94-.78,6.94-7.1V4.13h-5.54c-6.4,0-8.81,2.34-9,9.13h-1.25V1.17h38.85V13.26h-1.25c-.16-6.71-2.5-9.13-8.89-9.13h-5.62Z"/><path d="M534,45.95c0,6.24,1.25,7.18,6.79,7.1v1.33H519.86V53c5.54,0,6.79-.94,6.79-7.1V32.06L514.33,7.26c-1.79-3.59-2.89-4.45-5.77-4.76V1.17h17.78V2.5c-4,0-4.76.47-4.76,2a4.69,4.69,0,0,0,.7,2.18l10.37,20.83,9.59-20.83a6.23,6.23,0,0,0,.39-2c0-1.72-1.25-2.11-4.06-2.11V1.17h13.65V2.5c-4,.31-5.46,1.56-7.8,6.55L534,31.59Z"/></g></g></svg>