<svg xmlns="http://www.w3.org/2000/svg" viewBox="0 0 299.28 54.37" preserveAspectRatio="none"><title>fluid</title><g id="Layer_2" data-name="Layer 2"><g id="Layer_1-2" data-name="Layer 1"><path d="M38.85,11.39h-1.4C37.21,6.86,35.33,3,29.17,3H14V23.79h8.74c5.07,0,7.72-1.64,7.41-7.57h1.33V34.4H30.19c.16-5.3-1.17-7.64-6.24-7.64H14v18c0,6,1.09,7.18,7.18,7.1V53.2H0V51.87c5.77.08,6.71-1.33,6.71-7.1V8.35c0-6.08-.86-7-6.71-7V0H38.46Z"/><path d="M61.54,0V1.33c-5.62-.08-6.94.86-6.94,7.1V46c0,3.51.62,4.21,3.9,4.21H64c8.42,0,10.69-1.87,13.73-11.47l1.25.39-3.82,14H40.33V51.87c6.08.08,6.94-1.33,6.94-7V8.42c0-6.16-1.4-7.18-6.94-7.1V0Z"/><path d="M96.41,0V1.33c-4.84,0-6,1.33-6,7V38.22c0,10.06,5.85,13.42,11.93,13.42,7.8,0,13.18-5.54,13.18-14.9V8.35c0-5.77-1.09-7-6.16-7V0h15V1.33c-4.52,0-5.85,1.25-5.85,7V37.05c0,11.47-6.94,17.32-17.47,17.32-7.72,0-17.94-3.28-17.94-17.86V8.35c0-5.85-1.25-7-6.08-7V0Z"/><path d="M145.47,0V1.33c-5.23-.08-6.55,1-6.55,7V44.77c0,6.47,1.64,7.1,6.55,7.1V53.2H125V51.87c5.38.08,6.55-1.33,6.55-7.1V8.35c0-6-1.33-7-6.55-7V0Z"/><path d="M166.53,0c18.41,0,26.29,13,26.29,26.83,0,16.46-11.7,26.37-25.9,26.37H146.17V51.87c5.62,0,6.79-1,6.79-7.1V8.35c0-6.08-1.25-7.1-6.79-7V0Zm-6.24,49.45A15.81,15.81,0,0,0,167,50.78c10.84,0,17.08-8.74,17.08-23.71,0-15.21-6.63-24.34-17.71-24.34a17.45,17.45,0,0,0-6.08,1Z"/><path d="M214.73,0V1.33c-5.23-.08-6.55,1-6.55,7V44.77c0,6.47,1.64,7.1,6.55,7.1V53.2H194.3V51.87c5.38.08,6.55-1.33,6.55-7.1V8.35c0-6-1.33-7-6.55-7V0Z"/><path d="M238.76,44.77c0,6.24,1.33,7.1,6.94,7.1V53.2H224.48V51.87c5.62.08,6.94-.78,6.94-7.1V3h-5.54c-6.4,0-8.81,2.34-9,9.13h-1.25V0h38.85V12.09h-1.25c-.16-6.71-2.5-9.13-8.89-9.13h-5.62Z"/><path d="M281,44.77c0,6.24,1.25,7.18,6.79,7.1V53.2h-20.9V51.87c5.54,0,6.79-.94,6.79-7.1V30.89L261.37,6.08c-1.79-3.59-2.89-4.45-5.77-4.76V0h17.78V1.33c-4,0-4.76.47-4.76,2a4.69,4.69,0,0,0,.7,2.18l10.37,20.83L289.3,5.46a6.22,6.22,0,0,0,.39-2c0-1.72-1.25-2.11-4.06-2.11V0h13.65V1.33c-4,.31-5.46,1.56-7.8,6.55L281,30.42Z"/></g></g></svg>