<svg xmlns="http://www.w3.org/2000/svg" viewBox="0 0 492.33 69.5" preserveAspectRatio="none"><title>squeeze</title><g id="Layer_2" data-name="Layer 2"><g id="Layer_1-2" data-name="Layer 1"><path d="M.39,37.6H1.87c.55,10.22,7.1,15,13.1,15,4.76,0,8.19-3.67,8.19-8.66,0-3.2-1-5.62-3.82-8.42S8.58,28,4.91,24.34C1.79,21.22,0,17.79,0,13.34,0,5.46,5.3,0,12.95,0c5.85,0,8.89,2.65,10.53,2.65,1.33,0,2.34-.94,2.81-2.65h1.33V17.39H26.29C25.82,7,18.56,3,13.73,3,9.28,3,6,6,6,10a10.73,10.73,0,0,0,3.51,7.8C13.1,21.37,21,25.43,25.43,29.88A16.13,16.13,0,0,1,30.19,41,14.37,14.37,0,0,1,15.52,55.54c-5.38,0-8.5-2.81-10.84-2.81-1.56,0-2.5.86-2.81,2.73H.39Z"/><path d="M32.68,27.77C32.68,13.42,39.94,0,53.74,0,68.56,0,74.8,14.82,74.8,27.77S69.19,51.09,60.29,54.45c2.89,9,8.5,12.87,15.13,13.73V69.5c-10.84-.31-21-6.63-26.68-14.51C38.14,52,32.68,40.33,32.68,27.77Zm21.06,25c9.91,0,12.32-10.22,12.32-25,0-17.55-3.67-25-12.32-25s-12.32,7.88-12.32,25C41.42,45.32,45.08,52.81,53.74,52.81Z"/><path d="M95.94,1.17V2.5c-4.84,0-6,1.33-6,7V39.39c0,10.06,5.85,13.42,11.93,13.42,7.8,0,13.18-5.54,13.18-14.9V9.52c0-5.77-1.09-7-6.16-7V1.17h15V2.5c-4.52,0-5.85,1.25-5.85,7V38.22c0,11.47-6.94,17.32-17.47,17.32-7.72,0-17.94-3.28-17.94-17.86V9.52c0-5.85-1.25-7-6.08-7V1.17Z"/><path d="M160.21,12.71h-1.4C158,5,155.53,4.13,149.45,4.13H138.68V25h8.42c5.93,0,7.57-2,7.49-8h1.33V35.57H154.6c.08-5.85-1.56-7.64-6.08-7.64h-9.83V47c0,3.74.55,4.45,3.74,4.45h7.64c6.47,0,9.75-2.89,12.32-10.69l1.33.39-4.06,13.26h-35.1V53c5.54.08,6.79-.94,6.79-7.1V9.52c0-5.62-.86-7.18-6.79-7V1.17h34.87Z"/><path d="M200.54,12.71h-1.4c-.86-7.72-3.28-8.58-9.36-8.58H179V25h8.42c5.93,0,7.57-2,7.49-8h1.33V35.57h-1.33c.08-5.85-1.56-7.64-6.08-7.64H179V47c0,3.74.55,4.45,3.74,4.45h7.64c6.47,0,9.75-2.89,12.32-10.69l1.33.39L200,54.37h-35.1V53c5.54.08,6.79-.94,6.79-7.1V9.52c0-5.62-.86-7.18-6.79-7V1.17h34.87Z"/><path d="M219.88,4.13c-6.16,0-8.89,1.4-9.28,10.14h-1.33l.23-13.1h31L214.42,51.4h12.32c9.36,0,11.31-3.12,12.87-11.15h1.33L238.6,54.37H205.45V53L230.8,4.13Z"/><path d="M251.39,47.66A11.89,11.89,0,0,0,251,50c0,2,1.25,3.12,5.15,3v1.33H241.72V53c3.82,0,5.23-1.48,6.94-7.33L262.31,0h1.25l14.67,45.71c2.26,7.1,3.28,7.33,7,7.33v1.33H267.07V53c3.28,0,4.52-.86,4.52-3a11.34,11.34,0,0,0-.78-3.51l-3-9.13H254.43Zm9.52-32.22h-.16l-5.46,19h11.62Z"/><path d="M304.82,1.17c10.84,0,18,6.08,18,14.12,0,5.23-3.35,11-12.48,11.78v.16c9.83.47,14.59,5.3,14.59,12.87,0,8.89-6.79,14.27-17.55,14.27H286V53c5.69,0,6.79-1,6.79-7.1V9.52c0-6-1.17-7.1-6.79-7V1.17Zm-4.68,24a20.37,20.37,0,0,0,4.13.47c6.86,0,10.84-3.9,10.84-10.69S310.91,3.9,304.2,3.9a17.51,17.51,0,0,0-4.06.47Zm0,25.43a13.3,13.3,0,0,0,5.3,1c6.63,0,10.76-4.13,10.76-11.23s-5.07-12-12.32-12a16.54,16.54,0,0,0-3.74.39Z"/><path d="M346.63,1.17V2.5c-5.23-.08-6.55,1-6.55,7V45.94c0,6.47,1.64,7.1,6.55,7.1v1.33H326.19V53c5.38.08,6.55-1.33,6.55-7.1V9.52c0-6-1.33-7-6.55-7V1.17Z"/><path d="M368.78,1.17V2.5c-5.62-.08-6.94.86-6.94,7.1v37.6c0,3.51.62,4.21,3.9,4.21h5.54c8.42,0,10.69-1.87,13.73-11.47l1.25.39-3.82,14H347.56V53c6.08.08,6.94-1.33,6.94-7V9.59c0-6.16-1.4-7.18-6.94-7.1V1.17Z"/><path d="M407.78,1.17V2.5c-5.23-.08-6.55,1-6.55,7V45.94c0,6.47,1.64,7.1,6.55,7.1v1.33H387.34V53c5.38.08,6.55-1.33,6.55-7.1V9.52c0-6-1.33-7-6.55-7V1.17Z"/><path d="M431.8,45.94c0,6.24,1.33,7.1,6.94,7.1v1.33H417.53V53c5.62.08,6.94-.78,6.94-7.1V4.13h-5.54c-6.4,0-8.81,2.34-9,9.13h-1.25V1.17h38.85V13.26h-1.25c-.16-6.71-2.5-9.13-8.89-9.13H431.8Z"/><path d="M474.08,45.94c0,6.24,1.25,7.18,6.79,7.1v1.33H460V53c5.54,0,6.79-.94,6.79-7.1V32.06L454.42,7.25c-1.79-3.59-2.89-4.45-5.77-4.76V1.17h17.78V2.5c-4,0-4.76.47-4.76,2a4.69,4.69,0,0,0,.7,2.18l10.37,20.83,9.59-20.83a6.22,6.22,0,0,0,.39-2c0-1.72-1.25-2.11-4.06-2.11V1.17h13.65V2.5c-4,.31-5.46,1.56-7.8,6.55L474.08,31.59Z"/></g></g></svg>