<svg xmlns="http://www.w3.org/2000/svg" viewBox="0 0 337.97 69.5" preserveAspectRatio="none"><title>conquest</title><g id="Layer_2" data-name="Layer 2"><g id="Layer_1-2" data-name="Layer 1"><path d="M37.83,17.55h-1.4c-.7-9.13-5.93-15-13.34-15-9.67,0-14.35,9.28-14.35,26.83,0,16.46,5.93,23.4,15.29,23.4,6.16,0,10.22-3.2,13.81-10.37l1.25.62c-3.67,8.27-9.44,12.48-17.24,12.48C10.92,55.54,0,46.57,0,29.25,0,12.4,9.52,0,22.39,0c6.32,0,9.44,3.28,11.39,3.28,1,0,1.48-.86,1.79-3.28H36.9Z"/><path d="M61.62,0C75.89,0,82.68,14.12,82.68,27.77c0,13.88-6.86,27.77-21.06,27.77-13.57,0-21.06-13.1-21.06-27.77C40.56,14.12,47.35,0,61.62,0Zm0,52.81c9.75,0,12.32-9.75,12.32-25,0-17.55-3.67-25-12.32-25-9.13,0-12.32,8.66-12.32,25C49.3,45.32,53,52.81,61.62,52.81Z"/><path d="M95.24,1.17l27,38.38h.16v-30c0-5.93-1.33-7.1-6.94-7V1.17h15.37V2.5c-4.06,0-5.46,1.48-5.46,5.54V55.23h-1.09L94,12.09h-.16V45.94c0,6.32,1.56,7.25,7.49,7.1v1.33H84.86V53c4.84-.08,6-1.56,6-5.93V7.8l-2.18-3c-1.4-2-2.65-2.34-5-2.34V1.17Z"/><path d="M133.38,27.77C133.38,13.42,140.63,0,154.44,0c14.82,0,21.06,14.82,21.06,27.77S169.88,51.09,161,54.45c2.89,9,8.5,12.87,15.13,13.73V69.5c-10.84-.31-21-6.63-26.68-14.51C138.84,52,133.38,40.33,133.38,27.77Zm21.06,25c9.91,0,12.32-10.22,12.32-25,0-17.55-3.67-25-12.32-25s-12.32,7.88-12.32,25C142.11,45.32,145.78,52.81,154.44,52.81Z"/><path d="M196.64,1.17V2.5c-4.84,0-6,1.33-6,7V39.39c0,10.06,5.85,13.42,11.93,13.42,7.8,0,13.18-5.54,13.18-14.9V9.52c0-5.77-1.09-7-6.16-7V1.17h15V2.5c-4.52,0-5.85,1.25-5.85,7V38.22c0,11.47-6.94,17.32-17.47,17.32-7.72,0-17.94-3.28-17.94-17.86V9.52c0-5.85-1.25-7-6.08-7V1.17Z"/><path d="M260.91,12.71h-1.4c-.86-7.72-3.28-8.58-9.36-8.58H239.38V25h8.42c5.93,0,7.57-2,7.49-8h1.33V35.57h-1.33c.08-5.85-1.56-7.64-6.08-7.64h-9.83V47c0,3.74.55,4.45,3.74,4.45h7.64c6.47,0,9.75-2.89,12.32-10.69l1.33.39-4.06,13.26h-35.1V53c5.54.08,6.79-.94,6.79-7.1V9.52c0-5.62-.86-7.18-6.79-7V1.17h34.87Z"/><path d="M267.23,37.6h1.48c.55,10.22,7.1,15,13.1,15,4.76,0,8.19-3.67,8.19-8.66,0-3.2-1-5.62-3.82-8.42S275.42,28,271.75,24.34c-3.12-3.12-4.91-6.55-4.91-11,0-7.88,5.3-13.34,12.95-13.34,5.85,0,8.89,2.65,10.53,2.65,1.33,0,2.34-.94,2.81-2.65h1.33V17.39h-1.33C292.65,7,285.4,3,280.56,3c-4.45,0-7.72,3-7.72,7a10.73,10.73,0,0,0,3.51,7.8c3.59,3.59,11.47,7.64,15.91,12.09A16.13,16.13,0,0,1,297,41a14.37,14.37,0,0,1-14.66,14.51c-5.38,0-8.5-2.81-10.84-2.81-1.56,0-2.5.86-2.81,2.73h-1.48Z"/><path d="M322.22,45.94c0,6.24,1.33,7.1,6.94,7.1v1.33H307.94V53c5.62.08,6.94-.78,6.94-7.1V4.13h-5.54c-6.4,0-8.81,2.34-9,9.13h-1.25V1.17H338V13.26h-1.25c-.16-6.71-2.5-9.13-8.89-9.13h-5.62Z"/></g></g></svg>