<svg xmlns="http://www.w3.org/2000/svg" viewBox="0 0 232.44 55.54" preserveAspectRatio="none"><title>excess</title><g id="Layer_2" data-name="Layer 2"><g id="Layer_1-2" data-name="Layer 1"><path d="M35.65,12.71h-1.4C33.39,5,31,4.13,24.88,4.13H14.12V25h8.42c5.93,0,7.57-2,7.49-8h1.33V35.57H30c.08-5.85-1.56-7.64-6.08-7.64H14.12V47c0,3.74.55,4.45,3.74,4.45h7.64c6.47,0,9.75-2.89,12.32-10.69l1.33.39L35.1,54.37H0V53c5.54.08,6.79-.94,6.79-7.1V9.52c0-5.62-.86-7.18-6.79-7V1.17H34.87Z"/><path d="M75.19,7.72a5.86,5.86,0,0,0,1.09-2.81c0-1.64-1.25-2.5-4.84-2.42V1.17H87.52V2.5c-4.29,0-5.38.47-9.59,6.71L67.31,24.73l13.42,22.7c2.57,4.29,4.37,5.69,7.33,5.62v1.33H68.8V53c3.67.08,4.76-.7,4.76-2a7.56,7.56,0,0,0-1.4-3.59L62.79,31.59,51.95,47.43c-1.09,1.56-1.48,2.5-1.48,3.28,0,1.33,1.4,2.5,4.68,2.34v1.33H40.64V53c2.81.08,4.6-1.09,6.86-4.45L61,28.63,49,8.11c-2.5-4.29-4.13-5.62-8.35-5.62V1.17H61.23V2.5c-3.51-.08-4.76.78-4.76,2.5a5.81,5.81,0,0,0,.86,2.73L65.6,21.84Z"/><path d="M125.89,17.55h-1.4c-.7-9.13-5.93-15-13.34-15-9.67,0-14.35,9.28-14.35,26.83,0,16.46,5.93,23.4,15.29,23.4,6.16,0,10.22-3.2,13.81-10.37l1.25.62c-3.67,8.27-9.44,12.48-17.24,12.48-10.92,0-21.84-9-21.84-26.29C88.06,12.4,97.58,0,110.45,0c6.32,0,9.44,3.28,11.39,3.28,1,0,1.48-.86,1.79-3.28H125Z"/><path d="M163.33,12.71h-1.4c-.86-7.72-3.28-8.58-9.36-8.58H141.8V25h8.42c5.93,0,7.57-2,7.49-8H159V35.57h-1.33c.08-5.85-1.56-7.64-6.08-7.64H141.8V47c0,3.74.55,4.45,3.74,4.45h7.64c6.47,0,9.75-2.89,12.32-10.69l1.33.39-4.06,13.26h-35.1V53c5.54.08,6.79-.94,6.79-7.1V9.52c0-5.62-.86-7.18-6.79-7V1.17h34.87Z"/><path d="M169.65,37.6h1.48c.55,10.22,7.1,15,13.1,15,4.76,0,8.19-3.67,8.19-8.66,0-3.2-1-5.62-3.82-8.42S177.84,28,174.17,24.34c-3.12-3.12-4.91-6.55-4.91-11,0-7.88,5.3-13.34,12.95-13.34,5.85,0,8.89,2.65,10.53,2.65,1.33,0,2.34-.94,2.81-2.65h1.33V17.39h-1.33C195.08,7,187.82,3,183,3c-4.45,0-7.72,3-7.72,7a10.73,10.73,0,0,0,3.51,7.8c3.59,3.59,11.47,7.64,15.91,12.09A16.13,16.13,0,0,1,199.45,41a14.37,14.37,0,0,1-14.67,14.51c-5.38,0-8.5-2.81-10.84-2.81-1.56,0-2.5.86-2.81,2.73h-1.48Z"/><path d="M202.64,37.6h1.48c.55,10.22,7.1,15,13.1,15,4.76,0,8.19-3.67,8.19-8.66,0-3.2-1-5.62-3.82-8.42S210.83,28,207.17,24.34c-3.12-3.12-4.91-6.55-4.91-11C202.25,5.46,207.56,0,215.2,0c5.85,0,8.89,2.65,10.53,2.65,1.33,0,2.34-.94,2.81-2.65h1.33V17.39h-1.33C228.07,7,220.82,3,216,3c-4.45,0-7.72,3-7.72,7a10.73,10.73,0,0,0,3.51,7.8c3.59,3.59,11.47,7.64,15.91,12.09A16.13,16.13,0,0,1,232.44,41a14.37,14.37,0,0,1-14.66,14.51c-5.38,0-8.5-2.81-10.84-2.81-1.56,0-2.5.86-2.81,2.73h-1.48Z"/></g></g></svg>