<svg xmlns="http://www.w3.org/2000/svg" viewBox="0 0 378.77 55.54" preserveAspectRatio="none"><title>ignorance</title><g id="Layer_2" data-name="Layer 2"><g id="Layer_1-2" data-name="Layer 1"><path d="M20.44,1.17V2.5c-5.23-.08-6.55,1-6.55,7V45.94c0,6.47,1.64,7.1,6.55,7.1v1.33H0V53c5.38.08,6.55-1.33,6.55-7.1V9.52c0-6-1.33-7-6.55-7V1.17Z"/><path d="M61.85,16.77H60.53c-.78-9-7.49-14-14.27-14-9.52,0-15.6,9.91-15.6,25.12,0,12.17,4.13,25,15.05,25a14.7,14.7,0,0,0,10-3.9V33.15c0-4.29-1.09-6.08-5.38-6.16V25.66h18.1V27C64,27,63,28.94,63,34.09V49.61c-5.38,4-10.84,5.93-16.85,5.93-14.2,0-24.26-11-24.26-26.68C21.92,14.9,30.58,0,45.24,0c7.33,0,10.92,3.43,12.48,3.43,1.33,0,1.87-1.09,2-3.43h1.25Z"/><path d="M80.5,1.17l27,38.38h.16v-30c0-5.93-1.33-7.1-6.94-7V1.17h15.37V2.5C112,2.5,110.6,4,110.6,8V55.23h-1.09L79.25,12.09h-.16V45.94c0,6.32,1.56,7.25,7.49,7.1v1.33H70.12V53c4.84-.08,6-1.56,6-5.93V7.8l-2.18-3c-1.4-2-2.65-2.34-5-2.34V1.17Z"/><path d="M139.7,0C154,0,160.76,14.12,160.76,27.77c0,13.88-6.86,27.77-21.06,27.77-13.57,0-21.06-13.1-21.06-27.77C118.64,14.12,125.42,0,139.7,0Zm0,52.81c9.75,0,12.32-9.75,12.32-25,0-17.55-3.67-25-12.32-25-9.13,0-12.32,8.66-12.32,25C127.37,45.32,131,52.81,139.7,52.81Z"/><path d="M176.51,45.94c0,6.08,1.09,7.18,6.86,7.1v1.33H162.24V53c5.93.08,6.94-1.09,6.94-7.1V9.59c0-6.16-1.33-7.18-6.94-7.1V1.17h21.84C194.22,1.17,200,7.41,200,14.51c0,6.63-4.76,12.09-12.87,13.65l12.64,20.59c2.11,3.43,3.35,4.45,6,4.29v1.33H195.55L180.1,29.09h-3.59ZM179.4,26.6c7.33,0,11.86-4.68,11.86-11.31,0-6.79-4-11.39-9.75-11.39a11.7,11.7,0,0,0-5,1.09V26.6Z"/><path d="M216.37,47.66A11.92,11.92,0,0,0,216,50c0,2,1.25,3.12,5.15,3v1.33H206.7V53c3.82,0,5.23-1.48,6.94-7.33L227.29,0h1.25L243.2,45.71c2.26,7.1,3.28,7.33,7,7.33v1.33H232V53c3.28,0,4.52-.86,4.52-3a11.34,11.34,0,0,0-.78-3.51l-3-9.13H219.41Zm9.52-32.22h-.16l-5.46,19h11.62Z"/><path d="M262.08,1.17l27,38.38h.16v-30c0-5.93-1.33-7.1-6.94-7V1.17h15.37V2.5c-4.06,0-5.46,1.48-5.46,5.54V55.23h-1.09L260.83,12.09h-.16V45.94c0,6.32,1.56,7.25,7.49,7.1v1.33H251.7V53c4.84-.08,6-1.56,6-5.93V7.8l-2.18-3c-1.4-2-2.65-2.34-5-2.34V1.17Z"/><path d="M337.82,17.55h-1.4c-.7-9.13-5.93-15-13.34-15-9.67,0-14.35,9.28-14.35,26.83,0,16.46,5.93,23.4,15.29,23.4,6.16,0,10.22-3.2,13.81-10.37l1.25.62c-3.67,8.27-9.44,12.48-17.24,12.48-10.92,0-21.84-9-21.84-26.29C300,12.4,309.5,0,322.37,0c6.32,0,9.44,3.28,11.39,3.28,1,0,1.48-.86,1.79-3.28h1.33Z"/><path d="M375.26,12.71h-1.4C373,5,370.58,4.13,364.49,4.13H353.73V25h8.42c5.93,0,7.57-2,7.49-8H371V35.57h-1.33c.08-5.85-1.56-7.64-6.08-7.64h-9.83V47c0,3.74.55,4.45,3.74,4.45h7.64c6.47,0,9.75-2.89,12.32-10.69l1.33.39-4.06,13.26h-35.1V53c5.54.08,6.79-.94,6.79-7.1V9.52c0-5.62-.86-7.18-6.79-7V1.17h34.87Z"/></g></g></svg>