<?xml version="1.0" encoding="utf-8"?>
<!-- Generator: Adobe Illustrator 21.1.0, SVG Export Plug-In . SVG Version: 6.00 Build 0)  -->
<svg version="1.1" id="Layer_1" xmlns="http://www.w3.org/2000/svg" xmlns:xlink="http://www.w3.org/1999/xlink" x="0px" y="0px"
	 viewBox="0 0 53.7 53.7" style="enable-background:new 0 0 53.7 53.7;" xml:space="preserve">
<style type="text/css">
	.st0{fill:#FFFFFF;}
</style>
<title>close</title>
<g id="Layer_2">
	<g id="Layer_1-2">
		<g>
			<polygon class="st0" points="26.8,31.2 7.7,50.4 3.3,46 22.5,26.8 3.3,7.7 7.7,3.3 26.8,22.5 46,3.3 50.4,7.7 31.2,26.8 50.4,46 
				46,50.4 			"/>
			<path d="M46,5.4l2.2,2.3L29.1,26.8L48.3,46L46,48.3L26.8,29.1L7.7,48.3L5.4,46l19.2-19.2L5.4,7.7l2.3-2.3l19.2,19.2L46,5.4
				 M46,1.2l-2.1,2.1l-17,17l-17-17L7.7,1.2L5.6,3.3L3.3,5.6L1.2,7.7l2.1,2.1l17,17l-17,17L1.2,46l2.1,2.1l2.3,2.2l2.1,2.1l2.1-2.1
				l17-17l17,17l2.1,2.1l2.1-2.1l2.2-2.2l2.1-2.1l-2.1-2.1l-17-17l17-17l2.1-2.1l-2.1-2.1l-2.2-2.3L46,1.2L46,1.2z"/>
		</g>
	</g>
</g>
</svg>
